#!OML:ASF F:\VICON\USERDATA\INSTALL\Justin_Nancy\Justin_Nancy.ASF
:FULLY-SPECIFIED
:DEGREES
73
root 0.451079 17.4145 -34.2224 7.85918 -2.0394 1.08904
lowerback 2.83763 -3.1092 -5.64847
upperback -3.71091 -4.23585 5.59724
thorax -4.64593 -1.80388 9.39008
lowerneck -6.90666 0.215189 -14.2392
upperneck 18.0852 1.36619 4.87602
head 6.53484 0.0936177 4.03319
rclavicle -4.44284e-014 5.56597e-014
rhumerus -34.4122 1.73279 -81.0531
rradius 27.9092
rwrist 7.52686
rhand -18.3977 10.759
rfingers 7.12502
rthumb 7.88649 -19.0739
lclavicle -4.44284e-014 5.56597e-014
lhumerus -44.2453 23.407 79.6778
lradius 30.4287
lwrist -9.32193
lhand -16.4455 24.9069
lfingers 7.12502
lthumb 9.77034 54.6603
rfemur -14.3853 5.45232 22.9722
rtibia 31.0611
rfoot -19.58 -10.653
rtoes 13.8753
lfemur -15.4942 -3.82186 -20.2893
ltibia 31.6203
lfoot -19.8123 9.00022
ltoes 0.546137
74
root 0.435316 17.4154 -34.2157 7.90752 -2.20618 1.08245
lowerback 2.58175 -2.06636 -4.34703
upperback -3.10347 -2.8058 4.34859
thorax -4.25054 -1.18545 7.17208
lowerneck -7.97896 -1.0172 -13.1481
upperneck 18.3472 -0.433517 5.54031
head 6.97218 -0.643091 3.95365
rclavicle -1.31198e-014 6.36111e-015
rhumerus -34.0609 -2.62634 -81.0354
rradius 28.13
rwrist 8.28269
rhand -17.86 12.6618
rfingers 7.12502
rthumb 8.40549 -17.1509
lclavicle -1.31198e-014 6.36111e-015
lhumerus -41.8534 20.2013 80.1548
lradius 29.7992
lwrist -9.35325
lhand -16.3768 24.7325
lfingers 7.12502
lthumb 9.83663 54.4828
rfemur -14.432 5.55168 22.9944
rtibia 31.0327
rfoot -19.4869 -10.5024
rtoes 13.8565
lfemur -15.5016 -3.85596 -20.2476
ltibia 31.6093
lfoot -19.6916 9.18865
ltoes 0.147299
75
root 0.422502 17.4199 -34.2062 7.98322 -2.12271 0.94647
lowerback 2.75666 -2.1132 -3.135
upperback -3.94892 -2.81875 3.91197
thorax -5.30734 -1.18893 6.05747
lowerneck -5.07731 -0.536397 -13.8283
upperneck 17.5894 -0.256585 6.43311
head 6.19556 -0.545324 4.34633
rclavicle 1.60767e-014 -1.27222e-014
rhumerus -36.1348 -2.61793 -81.3836
rradius 28.4764
rwrist 7.96117
rhand -18.2031 11.2511
rfingers 7.12502
rthumb 8.07433 -18.5746
lclavicle 1.60767e-014 -1.27222e-014
lhumerus -43.6473 19.8121 78.8897
lradius 29.5355
lwrist -9.53604
lhand -16.4934 22.5808
lfingers 7.12502
lthumb 9.7241 52.3363
rfemur -14.4712 5.33583 23.1914
rtibia 31.0144
rfoot -19.3924 -10.4131
rtoes 13.5823
lfemur -15.5749 -4.01688 -20.039
ltibia 31.6603
lfoot -19.5549 9.26742
ltoes -0.0757648
76
root 0.398136 17.4251 -34.2091 8.25609 -1.75641 1.07261
lowerback 2.65783 -1.72531 -3.4948
upperback -2.79272 -2.3345 3.67963
thorax -4.09362 -0.998866 5.93969
lowerneck -9.22514 -1.82638 -12.6823
upperneck 18.6993 -1.51437 5.88361
head 7.40995 -1.09429 3.90789
rclavicle 2.38542e-014 1.82882e-014
rhumerus -33.6306 -4.56566 -81.3441
rradius 28.2851
rwrist 7.85453
rhand -18.6246 10.8066
rfingers 7.12502
rthumb 7.66747 -19.0344
lclavicle 2.38542e-014 1.82882e-014
lhumerus -40.1915 19.4406 79.8005
lradius 28.777
lwrist -10.2153
lhand -16.529 22.2977
lfingers 7.12502
lthumb 9.68983 52.0548
rfemur -14.7412 5.22217 23.1876
rtibia 31.006
rfoot -19.3753 -10.6853
rtoes 13.4753
lfemur -16.0092 -4.11625 -19.9844
ltibia 31.7691
lfoot -19.4072 8.87992
ltoes -0.252841
77
root 0.366593 17.4316 -34.224 8.58637 -1.25365 1.25505
lowerback 3.17303 -3.0368 -5.29901
upperback -3.89442 -4.15073 5.02242
thorax -5.10909 -1.7554 8.59246
lowerneck -6.94984 0.11203 -13.3422
upperneck 17.4823 1.0585 5.17756
head 6.37052 0.0515527 3.95201
rclavicle 4.00054e-014 -4.45278e-014
rhumerus -34.8022 0.39224 -81.5697
rradius 28.4888
rwrist 7.08242
rhand -18.5347 10.4321
rfingers 7.12502
rthumb 7.75426 -19.4057
lclavicle 4.00054e-014 -4.45278e-014
lhumerus -43.7856 22.7881 78.7356
lradius 29.8033
lwrist -9.86124
lhand -16.3196 23.2212
lfingers 7.12502
lthumb 9.89185 52.9689
rfemur -15.0655 5.08628 23.1743
rtibia 30.9492
rfoot -19.3762 -11.0921
rtoes 13.0954
lfemur -16.6097 -3.76782 -19.9397
ltibia 31.9321
lfoot -19.2255 8.06102
ltoes -0.766379
78
root 0.34665 17.4351 -34.2204 8.66885 -1.0862 1.20161
lowerback 1.35898 -2.17592 -3.04654
upperback -2.36883 -2.91547 3.10758
thorax -2.89082 -1.35119 5.03108
lowerneck -8.07792 -1.27773 -11.9471
upperneck 17.1785 -1.0839 6.338
head 6.65819 -0.77842 3.94561
rclavicle 1.36664e-014 -3.97569e-015
rhumerus -32.8316 -4.97181 -82.5326
rradius 28.2872
rwrist 8.28456
rhand -18.5572 10.8552
rfingers 7.12502
rthumb 7.73251 -18.9835
lclavicle 1.36664e-014 -3.97569e-015
lhumerus -40.0471 18.5832 79.0553
lradius 29.5592
lwrist -8.90538
lhand -16.1111 24.2051
lfingers 7.12502
lthumb 10.0929 53.9431
rfemur -15.0601 4.9079 23.335
rtibia 30.881
rfoot -19.4533 -11.0141
rtoes 13.532
lfemur -16.7878 -3.67797 -19.7606
ltibia 32.1157
lfoot -18.9038 7.81619
ltoes -1.92061
79
root 0.333878 17.4384 -34.2027 8.66747 -1.11663 1.03469
lowerback -0.471703 -3.3482 -2.83426
upperback -1.85704 -4.44912 3.45566
thorax -1.156 -2.17439 5.16079
lowerneck -5.7408 -0.0303816 -13.1799
upperneck 15.5221 0.438393 6.73195
head 5.57712 -0.0788519 4.34127
rclavicle 4.17448e-014 -3.18055e-015
rhumerus -31.9665 -1.73278 -83.8745
rradius 27.9646
rwrist 8.35937
rhand -18.9765 10.6335
rfingers 7.12502
rthumb 7.32786 -19.2196
lclavicle 4.17448e-014 -3.18055e-015
lhumerus -41.0553 21.5267 77.6022
lradius 29.9696
lwrist -8.58524
lhand -16.0545 24.5582
lfingers 7.12502
lthumb 10.1476 54.2935
rfemur -14.9549 4.84834 23.5705
rtibia 30.7713
rfoot -19.3775 -10.9123
rtoes 11.8431
lfemur -16.8045 -3.76815 -19.5223
ltibia 32.3155
lfoot -18.6448 7.91493
ltoes -3.10406
80
root 0.322233 17.4441 -34.1851 8.7886 -1.29364 1.05956
lowerback -0.694832 -2.40065 -2.04522
upperback -1.35774 -3.1867 2.6348
thorax -0.742577 -1.56695 3.84674
lowerneck -7.03672 -1.04118 -12.1686
upperneck 15.8718 -0.930998 6.94291
head 6.0444 -0.6588 4.16685
rclavicle 1.6201e-014 7.95139e-016
rhumerus -31.3701 -5.02963 -83.6943
rradius 28.0357
rwrist 8.73272
rhand -19.6141 9.7344
rfingers 7.12502
rthumb 6.7124 -20.1392
lclavicle 1.6201e-014 7.95139e-016
lhumerus -39.0099 19.0674 78.3096
lradius 29.3764
lwrist -8.63071
lhand -16.122 24.4331
lfingers 7.12502
lthumb 10.0825 54.1715
rfemur -14.9755 4.81828 23.5468
rtibia 30.6265
rfoot -19.3304 -10.7211
rtoes 9.86488
lfemur -16.9694 -3.83744 -19.5292
ltibia 32.5347
lfoot -18.8481 8.11154
ltoes -3.13426
